<?xml version="1.0" encoding="UTF-8" standalone="no"?>
<!DOCTYPE svg PUBLIC "-//W3C//DTD SVG 1.1//EN" "http://www.w3.org/Graphics/SVG/1.1/DTD/svg11.dtd">
<svg width="100%" height="100%" viewBox="0 0 512 512" version="1.1" xmlns="http://www.w3.org/2000/svg" xmlns:xlink="http://www.w3.org/1999/xlink" xml:space="preserve" xmlns:serif="http://www.serif.com/" style="fill-rule:evenodd;clip-rule:evenodd;stroke-linejoin:round;stroke-miterlimit:2;">
    <g>
        <path d="M53.54,142.08C65.13,157.95 86.04,165.51 105.81,159.21C130.5,151.28 144.1,124.95 136.16,100.39C131.88,86.79 121.93,76.59 109.84,71.55C107.83,70.54 105.68,69.91 103.54,69.28C95.23,67.14 86.16,67.14 77.34,69.91C75.45,70.54 73.69,71.17 72.05,72.05C50.77,81.75 39.68,106.06 46.99,128.85C48.5,133.76 50.77,138.17 53.54,142.08Z" style="fill:url(#_Linear1);fill-rule:nonzero;"/>
        <path d="M37.42,252.91C49.26,247.49 55.43,233.89 51.4,221.17C48.38,211.6 40.31,204.92 30.99,203.29C26.96,202.53 22.55,202.66 18.27,204.05C12.6,205.93 7.95,209.46 4.8,214C0.26,220.55 -1.37,228.99 1.27,237.18C4.67,248.01 14.49,255.06 25.2,255.32C28.22,255.57 31.25,255.19 34.27,254.19C35.4,253.8 36.41,253.42 37.42,252.91Z" style="fill:url(#_Linear2);fill-rule:nonzero;"/>
        <path d="M253.8,168.28C259.59,103.92 310.48,57.7 387.43,44.6C387.93,44.47 388.56,44.47 389.07,44.35C364.01,29.98 336.3,20.03 306.7,15.5C304.81,15.12 302.92,14.87 301.03,14.62C290.45,13.23 279.74,12.48 268.79,12.48C241.08,12.48 214.38,17.14 189.57,25.7C193.98,31.87 197.63,38.92 200.15,46.48C206.95,67.89 203.68,89.93 192.85,107.69C190.33,111.97 187.31,115.88 184.03,119.53C187.56,125.7 190.58,132.5 192.85,139.56C205.7,179.86 192.09,222.18 161.74,247.88C155.19,253.42 148.01,258.08 140.08,261.86C135.92,263.88 131.64,265.51 127.11,267.02C117.41,270.04 107.59,271.68 98.01,271.81C95.74,277.35 92.85,282.64 89.19,287.43C85.66,292.34 81.51,296.75 76.72,300.65C69.92,306.19 62.11,310.6 53.17,313.37C46.5,315.51 39.69,316.64 32.89,316.77C59.97,421.94 155.31,499.52 268.8,499.52C282.15,499.52 295.25,498.39 307.97,496.37C309.86,495.99 311.75,495.74 313.51,495.36C319.81,494.23 326.11,492.71 332.15,491.08C244.09,468.54 242.71,398.82 243.76,381.6L244.11,377.72C244.86,368.9 254.94,364.12 262.25,369.03C313.13,402.78 348.27,415.13 392.48,415.13C434.8,415.13 458.98,400.14 461.25,374.07C467.92,301.15 239.44,327.85 253.8,168.28Z" style="fill:url(#_Linear3);fill-rule:nonzero;"/>
        <path d="M417.75,122.05C417.62,122.05 417.5,122.04 417.38,122.05C395.45,123.16 370.56,136.28 368.67,158.58C364.89,199.89 449.53,208.58 512,245.23C511.14,223.84 507.49,203.17 501.4,183.57C490.06,147.06 455.98,122.12 417.75,122.05Z" style="fill:url(#_Linear4);fill-rule:nonzero;"/>
    </g>
    <defs>
        <linearGradient id="_Linear1" x1="0" y1="0" x2="1" y2="0" gradientUnits="userSpaceOnUse" gradientTransform="matrix(-3.00448,484.165,-460.564,-2.85802,264.843,13.4474)"><stop offset="0" style="stop-color:rgb(255,154,92);stop-opacity:1"/><stop offset="1" style="stop-color:rgb(255,82,82);stop-opacity:1"/></linearGradient>
        <linearGradient id="_Linear2" x1="0" y1="0" x2="1" y2="0" gradientUnits="userSpaceOnUse" gradientTransform="matrix(-3.00448,484.165,-460.564,-2.85802,264.843,13.4474)"><stop offset="0" style="stop-color:rgb(255,154,92);stop-opacity:1"/><stop offset="1" style="stop-color:rgb(255,82,82);stop-opacity:1"/></linearGradient>
        <linearGradient id="_Linear3" x1="0" y1="0" x2="1" y2="0" gradientUnits="userSpaceOnUse" gradientTransform="matrix(-3.00448,484.165,-460.564,-2.85802,264.843,13.4474)"><stop offset="0" style="stop-color:rgb(255,154,92);stop-opacity:1"/><stop offset="1" style="stop-color:rgb(255,82,82);stop-opacity:1"/></linearGradient>
        <linearGradient id="_Linear4" x1="0" y1="0" x2="1" y2="0" gradientUnits="userSpaceOnUse" gradientTransform="matrix(-3.00448,484.165,-460.564,-2.85802,264.843,13.4474)"><stop offset="0" style="stop-color:rgb(255,154,92);stop-opacity:1"/><stop offset="1" style="stop-color:rgb(255,82,82);stop-opacity:1"/></linearGradient>
    </defs>
</svg>
